<?xml version="1.0" encoding="utf-8"?>
<!-- Generator: Adobe Illustrator 25.3.0, SVG Export Plug-In . SVG Version: 6.00 Build 0)  -->
<svg version="1.1" id="Calque_1" xmlns="http://www.w3.org/2000/svg" xmlns:xlink="http://www.w3.org/1999/xlink" x="0px" y="0px"
	 viewBox="0 0 180 180" style="enable-background:new 0 0 180 180;" xml:space="preserve">
<style type="text/css">
	.st0{fill:none;stroke:#020203;stroke-width:0.75;stroke-miterlimit:10;}
	.st1{stroke:#020203;stroke-width:0.75;stroke-miterlimit:10;}
</style>
<g>
	<path class="st0" d="M89.7,3.2c-48,0-87,38.9-87,87c0,48,39,87,87,87s87-39,87-87C176.7,42.1,137.8,3.2,89.7,3.2z M89.7,175.2
		c-46.6,0-84.4-37.5-85-83.9l-1,0l1,0c0-0.4,0-0.7,0-1.1c0-0.9,0-1.8,0-2.7v0c1.4-45.7,38.9-82.3,85-82.3
		c45.2,0,82.1,35.3,84.8,79.8l0.2,3.9c0,0.5,0,0.9,0,1.4C174.7,137.1,136.7,175.2,89.7,175.2z"/>
	<path class="st1" d="M174.5,85l-29.4,0.4l-9.9-27l-3.5,13.1l-3.3,14.1l-0.9,3.9l-1.8,8l-1.7-8l-0.8-3.8l-3-14.1l-7.4-30.2
		l-4.8,29.3L105.7,86l-0.6,3.9l-4.7,32L93.4,90l-0.9-3.8l-3-13.4L78,18L63.8,86.6l-0.1,0.7l-10.5,0.4l-0.7,2.9l-2.6,10.7l-1.9-10.6
		l-0.7-3.8l-2.7-15l-4.8-22.3L33,73.1l-3.9,13.9L28,90.9l-2.3,8.3L24.1,91l-0.7-3.8L5.8,87.4l-1,0h0c1.4-45.7,38.9-82.3,85-82.3
		C134.9,5.2,171.8,40.4,174.5,85z"/>
	<path class="st0" d="M174.7,88.8l-31.2,0.4l-1.5-3.8l-6-15.5l-4.2,15.6l-1,3.7l0,0.1l-5.4,23.3l-5.2-23.1l0-0.2l-0.8-3.7l-5.8-27.9
		l-4.8,28.1l-0.6,3.7l0,0.2l-7,52.3L90.1,90.3L90.1,90l-0.8-3.8l-11-51.8L67.1,86.5l-0.8,3.9l0,0.2l-10.5,0.1l-6.6,30.1l-4.6-30.1
		l-0.1-0.8l-0.5-3l-4.2-22.7L33.2,87l-1.1,3.9l0,0.1l-6.6,23.3l-5-23.1L4.7,91.3v0c0-0.4,0-0.7,0-1.1c0-0.9,0-1.8,0-2.7l18.7-0.2
		l0.7,3.8l1.5,8.2l2.3-8.3l1.1-3.9L33,73.1l6.7-23.7l4.8,22.3l2.7,15l0.7,3.8l1.9,10.6l2.6-10.7l0.7-2.9l10.5-0.4l0.1-0.7L78,18
		l11.6,54.7l3,13.4l0.9,3.8l7.1,31.9l4.7-32l0.6-3.9l2.2-15.3l4.8-29.3l7.4,30.2l3,14.1l0.8,3.8l1.7,8l1.8-8l0.9-3.9l3.3-14.1
		l3.5-13.1l9.9,27l29.4-0.4L174.7,88.8z"/>
	<path class="st1" d="M174.7,90.2c0,46.9-38,85-85,85c-46.6,0-84.4-37.5-85-83.9l15.8-0.2l5,23.1l6.6-23.3l0-0.1l1.1-3.9l6.4-22.9
		l4.2,22.7l0.5,3l0.1,0.8l4.6,30.1l6.6-30.1l10.5-0.1l0-0.2l0.8-3.9l11.1-52.1l11,51.8l0.8,3.8l0.1,0.3l11.1,51.7l7-52.3l0-0.2
		l0.6-3.7l4.8-28.1l5.8,27.9l0.8,3.7l0,0.2l5.2,23.1l5.4-23.3l0-0.1l1-3.7l4.2-15.6l6,15.5l1.5,3.8l31.2-0.4
		C174.7,89.3,174.7,89.7,174.7,90.2z"/>
</g>
<line class="st0" x1="175.2" y1="84.9" x2="174.5" y2="85"/>
</svg>
